<svg xmlns="http://www.w3.org/2000/svg" xmlns:xlink="http://www.w3.org/1999/xlink" viewBox="0 0 82 19.00067"><defs><style>.cls-1{fill:#666;}.cls-2{fill:#727272;}.cls-3{fill:#949494;}.cls-4{fill:#5e5e5e;}.cls-5{fill:#a5a5a5;}.cls-6{fill:url(#linear-gradient);}</style><linearGradient id="linear-gradient" x1="41.68025" y1="10.46274" x2="52.01849" y2="11.9451" gradientUnits="userSpaceOnUse"><stop offset="0" stop-color="#727272"/><stop offset="0.53786" stop-color="#646464"/><stop offset="1" stop-color="#5e5e5e"/></linearGradient></defs><title>Asset 5</title><g id="Layer_2" data-name="Layer 2"><g id="Layer_1-2" data-name="Layer 1"><path class="cls-1" d="M5.76031,12.03331a.50811.50811,0,0,1-.49139-.41836Q4.94407,9.99662,4.025,9.96488a1.32962,1.32962,0,0,0-1.20608.76687,4.0717,4.0717,0,0,0-.49069,2.13954A3.61691,3.61691,0,0,0,2.85275,14.931a2.03324,2.03324,0,0,0,1.40506.91778v1.87255H4.22464a3.7499,3.7499,0,0,1-3.14378-1.39081A5.32881,5.32881,0,0,1,0,12.87129,5.21476,5.21476,0,0,1,1.08086,9.48386,3.7085,3.7085,0,0,1,4.1414,8.11047q2.56836.0171,3.08942,3.35658a.49922.49922,0,0,1-.49733.56626Z"/><path class="cls-1" d="M10.35066,8.32449h1.22941a.5.5,0,0,1,.5.5v6.88283H9.85066V8.82449A.5.5,0,0,1,10.35066,8.32449Z"/><path class="cls-1" d="M14.40146,11.95778h2.39522l1.0098,3.05305h.03317l1.95347-6.3337a.5.5,0,0,1,.47779-.35264h1.15887a.5.5,0,0,1,.47279.6627L19.08667,17.17a.5.5,0,0,1-.47279.3373h-1.807a.5.5,0,0,1-.46882-.32618Z"/><path class="cls-1" d="M23.33256,10.72449H25.562v6.28283a.5.5,0,0,1-.5.5H23.83256a.5.5,0,0,1-.5-.5Z"/><path class="cls-1" d="M33.58027,12.03331a.50812.50812,0,0,1-.49139-.41836Q32.764,9.99662,31.845,9.96488a1.32963,1.32963,0,0,0-1.20608.76687,4.0717,4.0717,0,0,0-.49068,2.13954,3.61691,3.61691,0,0,0,.52452,2.05973,2.03324,2.03324,0,0,0,1.40506.91778v1.87255h-.03316a3.74987,3.74987,0,0,1-3.14378-1.39081A5.32876,5.32876,0,0,1,27.82,12.87129a5.2147,5.2147,0,0,1,1.08087-3.38743,3.70847,3.70847,0,0,1,3.06053-1.37339q2.56836.0171,3.08942,3.35658a.49922.49922,0,0,1-.49733.56626Z"/><path class="cls-1" d="M57.38233,8.82163a.49714.49714,0,0,1,.49714-.49714h1.61518V9.5731h.03317a3.25968,3.25968,0,0,1,2.81079-1.46263A2.59953,2.59953,0,0,1,64.568,9.12691a4.50025,4.50025,0,0,1,.68154,2.58573V17.01a.49731.49731,0,0,1-.49731.49731H63.51814a.49731.49731,0,0,1-.49731-.49731V12.6043q0-.44619-.01692-.90979a2.484,2.484,0,0,0-.16582-.838,1.29377,1.29377,0,0,0-.41624-.6595,1.4031,1.4031,0,0,0-.848-.23216,1.4673,1.4673,0,0,0-.96513.30326,2.35145,2.35145,0,0,0-.5983.76687,3.70221,3.70221,0,0,0-.29983.9809,5.55819,5.55819,0,0,0-.09949,1.01572H57.38233Z"/><path class="cls-1" d="M69.65371,12.925a3.28836,3.28836,0,0,0,.68155,2.42466,2.27262,2.27262,0,0,0,1.296.59868.48452.48452,0,0,1,.40071.48984v.75534a.5005.5005,0,0,1-.53006.50235q-3.99763-.32939-4.04382-4.73532a5.74926,5.74926,0,0,1,.99762-3.44112,3.52906,3.52906,0,0,1,2.97729-1.40894A3.473,3.473,0,0,1,74.677,9.66234a7.65516,7.65516,0,0,1,.82532,3.47634.50806.50806,0,0,1-.50537.51761H71.20142a.5.5,0,0,1-.5-.5v-.64038a.5.5,0,0,1,.5-.5h2.17813a2.80462,2.80462,0,0,0-.4494-1.5156,1.58129,1.58129,0,0,0-1.36377-.64208,1.80216,1.80216,0,0,0-1.41386.6058A4.169,4.169,0,0,0,69.65371,12.925Z"/><path class="cls-1" d="M78.2916,10.07226h.44295a.5.5,0,0,0,.5-.5V8.82449a.5.5,0,0,0-.5-.5H78.2916a.5.5,0,0,1-.5-.5V6.22135a.5.5,0,0,1,.5-.5h1.22873a.5.5,0,0,1,.5.5V7.82449a.5.5,0,0,0,.5.5H81.5a.5.5,0,0,1,.5.5v.74777a.5.5,0,0,1-.5.5h-.97967a.5.5,0,0,0-.5.5v6.5954a.5.5,0,0,1-.5.5H78.2916a.5.5,0,0,1-.5-.5v-6.5954A.5.5,0,0,1,78.2916,10.07226Z"/><path class="cls-2" d="M43.48407,2.37736c-.92779-.21048-1.83667-.4725-2.75-.72247-.90936-.26062-1.80957-.5463-2.71026-.83066L38.591.43165c.0863,3.36563.04272,6.73013-.16,10.09329l-.24652-.3352c1.26715.46612,2.52613.95926,3.76929,1.50445-1.33679-.23614-2.65778-.52438-3.97064-.83963a.32031.32031,0,0,1-.24512-.29709l-.00159-.03839C37.59064,7.153,37.60388,3.78819,37.747.42454L37.74842.391a.40839.40839,0,0,1,.42535-.39065.41713.41713,0,0,1,.14069.03143c.87091.36542,1.74237.72952,2.60461,1.11868C41.77747,1.5503,42.6402,1.93806,43.48407,2.37736Z"/><polyline class="cls-2" points="42.805 3.077 39.683 2.222 39.594 9.634 44.144 11.692"/><path class="cls-3" d="M40.08759,11.85609a30.48944,30.48944,0,0,1-.799,4.685l-.328-.58335c.82807.21491,1.65357.43854,2.47016.69382l-.51654.1712a31.00543,31.00543,0,0,1,3.50244-3.77838,31.00562,31.00562,0,0,1-2.73395,4.36676.46555.46555,0,0,1-.49151.178l-.02533-.00662c-.82862-.21283-1.64826-.45728-2.4654-.71048l-.02588-.008a.45906.45906,0,0,1-.30261-.5744l.00037-.00116A30.475,30.475,0,0,1,40.08759,11.85609Z"/><polyline class="cls-3" points="40.8 12.442 40.359 15.386 40.983 15.564 43.315 12.932"/><polyline class="cls-4" points="48.06 13.941 48.752 17.076 49.466 17.082 50.182 13.856"/><path class="cls-5" d="M49.2309,12.66239c.59466-.08383,1.18988-.14947,1.78534-.21008.59546-.05945,1.19037-.13559,1.78631-.18137l-.25219.19413c.38372-1.60529.8042-3.19953,1.24615-4.7873.44226-1.58767.89935-3.17092,1.38989-4.74411l.50031.63117q-2.44656.14063-4.89807.20129l.293-.1622c-.62158.81034-1.25885,1.60947-1.90064,2.4054-.6618.78158-1.29559,1.58319-1.982,2.34713.502-.896,1.0567-1.75424,1.58337-2.63256.54669-.864,1.0979-1.72474,1.66474-2.57428A.36228.36228,0,0,1,50.71173,2.99l.02881-.00281q2.44044-.24047,4.88574-.4024a.48995.48995,0,0,1,.50312.62262l-.00269.00876c-.4577,1.583-.94891,3.156-1.455,4.72454-.50635,1.56846-1.03412,3.13044-1.5987,4.68137l-.00946.02606a.25641.25641,0,0,1-.243.16828c-.59766-.0062-1.19629-.04279-1.79437-.06266C50.4281,12.73274,49.82978,12.70667,49.2309,12.66239Z"/><polyline class="cls-5" points="48.183 11.74 51.874 11.143 53.699 4.446 51.599 4.575 47.679 9.397"/><path class="cls-6" d="M51.00977,13.69605c.02643,1.584-.06525,3.15018-.17652,4.71351a.4771.4771,0,0,1-.44873.44241l-.06726.00375c-.858.04868-1.71582.12046-2.57391.14469a.63635.63635,0,0,1-.62244-.43726l-.01464-.04532c-.41175-1.25845-.77869-2.5293-1.14423-3.80057-.34345-1.27737-.70288-2.55032-.99841-3.841a66.41218,66.41218,0,0,1-1.46228-7.83014,66.417,66.417,0,0,1,2.777,7.46576c.411,1.25864.75812,2.535,1.12128,3.807.341,1.278.6806,2.55648.9754,3.84735l-.63684-.48236c.85822.01754,1.71668.08261,2.575.1246l-.51575.446C50.14917,16.72709,50.52039,15.20274,51.00977,13.69605Z"/></g></g></svg>