<svg xmlns="http://www.w3.org/2000/svg" xmlns:xlink="http://www.w3.org/1999/xlink" viewBox="0 0 82 19.00067"><defs><style>.cls-1{fill:#fff;}.cls-2{fill:url(#linear-gradient);}</style><linearGradient id="linear-gradient" x1="41.68024" y1="10.46274" x2="52.01848" y2="11.9451" gradientUnits="userSpaceOnUse"><stop offset="0" stop-color="#fff"/><stop offset="1" stop-color="#fff"/></linearGradient></defs><title>Asset 7</title><g id="Layer_2" data-name="Layer 2"><g id="Layer_1-2" data-name="Layer 1"><path class="cls-1" d="M5.76031,12.03329a.50811.50811,0,0,1-.49139-.41837Q4.94407,9.9966,4.025,9.96486a1.32962,1.32962,0,0,0-1.20608.76687,4.0717,4.0717,0,0,0-.49069,2.13954A3.61693,3.61693,0,0,0,2.85275,14.931a2.03328,2.03328,0,0,0,1.40506.91778v1.87255H4.22464a3.74992,3.74992,0,0,1-3.14378-1.39081A5.32881,5.32881,0,0,1,0,12.87127,5.21476,5.21476,0,0,1,1.08086,9.48384,3.70854,3.70854,0,0,1,4.1414,8.11044q2.56836.01712,3.08942,3.35659a.49922.49922,0,0,1-.49733.56626Z"/><path class="cls-1" d="M10.35066,8.32447h1.22941a.5.5,0,0,1,.5.5V15.7073H9.85066V8.82447A.5.5,0,0,1,10.35066,8.32447Z"/><path class="cls-1" d="M14.40146,11.95775h2.39522l1.0098,3.05306h.03317l1.95347-6.3337a.5.5,0,0,1,.47779-.35264h1.15887a.5.5,0,0,1,.47279.6627L19.08667,17.17a.5.5,0,0,1-.47279.3373h-1.807a.5.5,0,0,1-.46882-.32619Z"/><path class="cls-1" d="M23.33256,10.72447H25.562V17.0073a.5.5,0,0,1-.5.5H23.83256a.5.5,0,0,1-.5-.5Z"/><path class="cls-1" d="M33.58027,12.03329a.50812.50812,0,0,1-.49139-.41837Q32.764,9.9966,31.845,9.96486a1.32963,1.32963,0,0,0-1.20608.76687,4.0717,4.0717,0,0,0-.49068,2.13954,3.61693,3.61693,0,0,0,.52452,2.05973,2.03328,2.03328,0,0,0,1.40506.91778v1.87255h-.03316a3.7499,3.7499,0,0,1-3.14378-1.39081A5.32876,5.32876,0,0,1,27.82,12.87127a5.2147,5.2147,0,0,1,1.08087-3.38743,3.7085,3.7085,0,0,1,3.06053-1.3734q2.56836.01712,3.08942,3.35659a.49922.49922,0,0,1-.49733.56626Z"/><path class="cls-1" d="M57.38233,8.82161a.49714.49714,0,0,1,.49714-.49714h1.61518V9.57308h.03317a3.25972,3.25972,0,0,1,2.81079-1.46264A2.59953,2.59953,0,0,1,64.568,9.12689a4.50025,4.50025,0,0,1,.68154,2.58573V17.01a.49731.49731,0,0,1-.49731.49731H63.51814a.49731.49731,0,0,1-.49731-.49731V12.60428q0-.44619-.01692-.9098a2.4841,2.4841,0,0,0-.16582-.838,1.29378,1.29378,0,0,0-.41624-.65949,1.4031,1.4031,0,0,0-.848-.23216,1.4673,1.4673,0,0,0-.96513.30326,2.35145,2.35145,0,0,0-.5983.76687,3.70221,3.70221,0,0,0-.29983.9809,5.55811,5.55811,0,0,0-.09949,1.01572H57.38233Z"/><path class="cls-1" d="M69.65371,12.925a3.28839,3.28839,0,0,0,.68155,2.42467,2.27254,2.27254,0,0,0,1.296.59867.48454.48454,0,0,1,.40071.48985v.75534a.5005.5005,0,0,1-.53006.50235q-3.99763-.3294-4.04382-4.73532a5.74926,5.74926,0,0,1,.99762-3.44112,3.52909,3.52909,0,0,1,2.97729-1.40895A3.473,3.473,0,0,1,74.677,9.66232a7.65516,7.65516,0,0,1,.82532,3.47634.50806.50806,0,0,1-.50537.51761H71.20142a.5.5,0,0,1-.5-.5v-.64038a.5.5,0,0,1,.5-.5h2.17813a2.80462,2.80462,0,0,0-.4494-1.5156,1.58129,1.58129,0,0,0-1.36377-.64208,1.80213,1.80213,0,0,0-1.41386.6058A4.169,4.169,0,0,0,69.65371,12.925Z"/><path class="cls-1" d="M78.2916,10.07223h.44295a.5.5,0,0,0,.5-.5V8.82447a.5.5,0,0,0-.5-.5H78.2916a.5.5,0,0,1-.5-.5V6.22133a.5.5,0,0,1,.5-.5h1.22873a.5.5,0,0,1,.5.5V7.82447a.5.5,0,0,0,.5.5H81.5a.5.5,0,0,1,.5.5v.74776a.5.5,0,0,1-.5.5h-.97967a.5.5,0,0,0-.5.5v6.59541a.5.5,0,0,1-.5.5H78.2916a.5.5,0,0,1-.5-.5V10.57223A.5.5,0,0,1,78.2916,10.07223Z"/><path class="cls-1" d="M43.48406,2.37733c-.9278-.21048-1.83667-.4725-2.74994-.72244-.90942-.26065-1.80963-.54633-2.71033-.83069l.56726-.39258c.08625,3.36563.04267,6.73013-.16,10.09332l-.24658-.3352c1.26715.46609,2.52612.95923,3.76929,1.50446-1.33674-.23618-2.65778-.52442-3.97059-.83967a.32025.32025,0,0,1-.24517-.29708l-.00159-.0384c-.14581-3.36611-.13257-6.73086.01056-10.09454L37.74846.391a.40833.40833,0,0,1,.42536-.39062.41568.41568,0,0,1,.14062.03143c.871.36539,1.74237.72949,2.60468,1.11865C41.77745,1.55027,42.64025,1.938,43.48406,2.37733Z"/><polyline class="cls-1" points="42.805 3.077 39.683 2.222 39.594 9.634 44.144 11.692"/><path class="cls-1" d="M40.08757,11.85606a30.48076,30.48076,0,0,1-.799,4.685l-.328-.58331c.82806.21487,1.65363.43853,2.47015.69378l-.51648.17121a31.0003,31.0003,0,0,1,3.50238-3.77839,30.99957,30.99957,0,0,1-2.73394,4.3668.4656.4656,0,0,1-.49152.17791l-.02527-.00662c-.82867-.21283-1.64831-.45728-2.46545-.71048l-.02588-.008a.459.459,0,0,1-.30261-.5744l.00036-.00116A30.483,30.483,0,0,1,40.08757,11.85606Z"/><polyline class="cls-1" points="40.8 12.441 40.359 15.386 40.983 15.564 43.315 12.932"/><polyline class="cls-1" points="48.06 13.941 48.752 17.076 49.466 17.082 50.182 13.856"/><path class="cls-1" d="M49.23088,12.6624c.59467-.08387,1.19-.14951,1.78534-.21009.59546-.05948,1.19037-.13562,1.78632-.18136l-.2522.19409c.38373-1.60526.8042-3.19949,1.24616-4.78729.44226-1.58768.89935-3.17093,1.38989-4.74411l.50037.63116q-2.44667.14067-4.89814.20133l.29309-.16224c-.62164.81034-1.25891,1.60947-1.90069,2.4054-.66174.78158-1.29559,1.58319-1.982,2.34714.502-.896,1.05671-1.75425,1.58338-2.63254.54675-.864,1.0979-1.72476,1.66479-2.57431A.36209.36209,0,0,1,50.71172,2.99l.02887-.00284q2.44043-.24045,4.88568-.4024a.48978.48978,0,0,1,.50311.62262l-.00262.00876c-.45776,1.583-.949,3.156-1.455,4.72455-.50628,1.56845-1.03412,3.13043-1.59869,4.68139l-.00946.02606a.25644.25644,0,0,1-.243.16825c-.59766-.0062-1.19629-.04279-1.79438-.06265C50.42809,12.73274,49.82976,12.70665,49.23088,12.6624Z"/><polyline class="cls-1" points="48.183 11.74 51.874 11.143 53.699 4.446 51.599 4.575 47.679 9.397"/><path class="cls-2" d="M51.00975,13.696c.02649,1.58395-.06524,3.15017-.17651,4.7135a.477.477,0,0,1-.44873.44241l-.0672.00378c-.858.04865-1.71588.12043-2.574.14469a.63642.63642,0,0,1-.62244-.43729l-.01465-.04529c-.41174-1.25845-.77869-2.52932-1.14423-3.80059-.34344-1.27738-.70288-2.55033-.99841-3.841a66.43045,66.43045,0,0,1-1.46228-7.83014,66.42654,66.42654,0,0,1,2.7771,7.46573c.41095,1.25867.75806,2.535,1.12122,3.80695.341,1.278.6806,2.55649.9754,3.84738l-.63684-.48239c.85821.01755,1.71667.08264,2.575.1246l-.51575.446C50.14916,16.72709,50.52037,15.20271,51.00975,13.696Z"/></g></g></svg>