<svg xmlns="http://www.w3.org/2000/svg" xmlns:xlink="http://www.w3.org/1999/xlink" viewBox="0 0 19.766 20.12427"><defs><style>.cls-1{fill:#f43168;}.cls-2{fill:#2ebdcc;}.cls-3{fill:#654ea3;}.cls-4{fill:#f49a0b;}.cls-5{fill:url(#linear-gradient);}</style><linearGradient id="linear-gradient" x1="4.61633" y1="11.1256" x2="15.09688" y2="12.62837" gradientUnits="userSpaceOnUse"><stop offset="0" stop-color="#f43168"/><stop offset="0.03439" stop-color="#ec336b"/><stop offset="0.26501" stop-color="#bc3c7f"/><stop offset="0.48399" stop-color="#96448f"/><stop offset="0.68573" stop-color="#7b499a"/><stop offset="0.86396" stop-color="#6b4da1"/><stop offset="1" stop-color="#654ea3"/></linearGradient></defs><title>Asset 2</title><g id="Layer_2" data-name="Layer 2"><g id="Layer_1-2" data-name="Layer 1"><path class="cls-1" d="M6.23336,2.52289c-.99109-.235-1.96317-.52167-2.93979-.796C2.32091,1.44184,1.35744,1.13179.39348.82306L.96074.43093c.08472,3.618.039,7.235-.16607,10.85057l-.246-.33481c1.3591.49551,2.71006,1.01776,4.04523,1.592-1.42889-.26574-2.842-.58349-4.247-.928A.32173.32173,0,0,1,.102,11.3115L.1007,11.27565C-.0435,7.65711-.0283,4.03992.11733.42382L.11858.39255A.409.409,0,0,1,.54372.00034a.417.417,0,0,1,.14105.0312c.93411.3898,1.86871.77829,2.79416,1.19171C4.40038,1.64749,5.32637,2.05933,6.23336,2.52289Z"/><polyline class="cls-1" points="5.506 3.275 2.161 2.356 2.065 10.323 6.94 12.536"/><path class="cls-2" d="M2.59447,12.71272A35.08092,35.08092,0,0,1,1.7061,17.7394l-.32788-.58307c.88672.2327,1.771.47386,2.64624.74667l-.51742.17174a35.66959,35.66959,0,0,1,3.7254-4.08456,35.66959,35.66959,0,0,1-2.95593,4.67169.467.467,0,0,1-.49414.17808l-.02362-.00625c-.88736-.23041-1.76566-.49247-2.64157-.763l-.024-.0074a.46043.46043,0,0,1-.30405-.57578l0-.00015A35.08276,35.08276,0,0,1,2.59447,12.71272Z"/><polyline class="cls-2" points="3.357 13.342 2.885 16.507 3.554 16.698 6.052 13.87"/><polyline class="cls-3" points="11.136 14.954 11.877 18.324 12.642 18.331 13.409 14.863"/><path class="cls-4" d="M12.39025,13.57953c.63723-.0852,1.27508-.15233,1.91308-.21431.63812-.05937,1.27545-.14172,1.91419-.18225l-.24872.19165c.44348-1.71582.85647-3.44076,1.344-5.1434.47611-1.70606.96686-3.40772,1.4914-5.09926l.50055.63066c-1.74759.09888-3.49622.181-5.24756.21857l.28924-.16046-2.0235,2.59559c-.70428.84394-1.38055,1.70787-2.10952,2.5342.54431-.9581,1.14132-1.87859,1.71029-2.81906l1.79636-2.75769a.34982.34982,0,0,1,.25629-.15723l.03326-.0034c1.74265-.17871,3.488-.313,5.23447-.43041a.48945.48945,0,0,1,.50338.62187l-.00274.009c-.4914,1.70146-1.0166,3.39282-1.55643,5.07978-.52847,1.69037-1.13141,3.35845-1.70392,5.03563l-.00595.01744a.25819.25819,0,0,1-.243.17441c-.64.002-1.2814-.03779-1.922-.05464C13.67263,13.64676,13.03176,13.62219,12.39025,13.57953Z"/><polyline class="cls-4" points="11.267 12.588 15.222 11.946 17.177 4.747 14.927 4.886 10.728 10.069"/><path class="cls-5" d="M14.29607,14.69072c-.08695,1.68527-.22809,3.36246-.39868,5.03525a.33046.33046,0,0,1-.31647.29671l-.02756.001c-.91928.03381-1.8385.083-2.75784.10055a.43017.43017,0,0,1-.41919-.30319l-.00568-.01892c-.41748-1.35951-.80508-2.72728-1.19174-4.09531-.37192-1.3721-.75451-2.74124-1.09451-4.12216q-.52812-2.06637-.99231-4.15039-.4683-2.08288-.84021-4.1924Q7.0121,5.24408,7.68254,7.27114q.67077,2.02695,1.2786,4.0713c.417,1.35965.79135,2.73108,1.17642,4.09955.3703,1.37254.73969,2.74534,1.07916,4.12639l-.42462-.32193c.91944.01034,1.839.05237,2.75855.079l-.34381.29747C13.53221,17.97321,13.887,16.32791,14.29607,14.69072Z"/></g></g></svg>