<svg xmlns="http://www.w3.org/2000/svg" xmlns:xlink="http://www.w3.org/1999/xlink" viewBox="0 0 82 19.00066"><defs><style>.cls-1{fill:#666;}.cls-2{fill:#f43168;}.cls-3{fill:#2ebdcc;}.cls-4{fill:#654ea3;}.cls-5{fill:#f49a0b;}.cls-6{fill:url(#linear-gradient);}</style><linearGradient id="linear-gradient" x1="41.68024" y1="10.46274" x2="52.01849" y2="11.9451" gradientUnits="userSpaceOnUse"><stop offset="0" stop-color="#f43168"/><stop offset="0.03439" stop-color="#ec336b"/><stop offset="0.26501" stop-color="#bc3c7f"/><stop offset="0.48399" stop-color="#96448f"/><stop offset="0.68573" stop-color="#7b499a"/><stop offset="0.86396" stop-color="#6b4da1"/><stop offset="1" stop-color="#654ea3"/></linearGradient></defs><title>Asset 6</title><g id="Layer_2" data-name="Layer 2"><g id="Layer_1-2" data-name="Layer 1"><path class="cls-1" d="M5.76031,12.03329a.50811.50811,0,0,1-.49139-.41836Q4.94407,9.99661,4.025,9.96487a1.32963,1.32963,0,0,0-1.20608.76686,4.07174,4.07174,0,0,0-.49069,2.13954A3.61694,3.61694,0,0,0,2.85275,14.931a2.03326,2.03326,0,0,0,1.40506.91777v1.87255H4.22464a3.7499,3.7499,0,0,1-3.14378-1.39081A5.32878,5.32878,0,0,1,0,12.87127,5.21475,5.21475,0,0,1,1.08086,9.48385,3.70854,3.70854,0,0,1,4.1414,8.11045q2.56836.01712,3.08942,3.35659a.49922.49922,0,0,1-.49733.56626Z"/><path class="cls-1" d="M10.35066,8.32448h1.22941a.5.5,0,0,1,.5.5v6.88283H9.85066V8.82448A.5.5,0,0,1,10.35066,8.32448Z"/><path class="cls-1" d="M14.40146,11.95776h2.39522l1.0098,3.053h.03317l1.95347-6.33369a.5.5,0,0,1,.47779-.35264h1.15887a.5.5,0,0,1,.47279.6627L19.08667,17.17a.5.5,0,0,1-.47279.3373h-1.807a.5.5,0,0,1-.46882-.32619Z"/><path class="cls-1" d="M23.33256,10.72448H25.562v6.28283a.5.5,0,0,1-.5.5H23.83256a.5.5,0,0,1-.5-.5Z"/><path class="cls-1" d="M33.58027,12.03329a.50812.50812,0,0,1-.49139-.41836Q32.764,9.99661,31.845,9.96487a1.32964,1.32964,0,0,0-1.20608.76686,4.07175,4.07175,0,0,0-.49068,2.13954,3.61694,3.61694,0,0,0,.52452,2.05974,2.03326,2.03326,0,0,0,1.40506.91777v1.87255h-.03316a3.74987,3.74987,0,0,1-3.14378-1.39081A5.32872,5.32872,0,0,1,27.82,12.87127a5.21469,5.21469,0,0,1,1.08087-3.38742,3.7085,3.7085,0,0,1,3.06053-1.3734q2.56836.01712,3.08942,3.35659a.49922.49922,0,0,1-.49733.56626Z"/><path class="cls-1" d="M57.38233,8.82162a.49714.49714,0,0,1,.49714-.49714h1.61518V9.57309h.03317a3.25969,3.25969,0,0,1,2.81079-1.46264A2.59953,2.59953,0,0,1,64.568,9.1269a4.50025,4.50025,0,0,1,.68154,2.58573V17.01a.49731.49731,0,0,1-.49731.49732H63.51814a.49731.49731,0,0,1-.49731-.49732v-4.4057q0-.44621-.01692-.9098a2.4841,2.4841,0,0,0-.16582-.838,1.2937,1.2937,0,0,0-.41624-.65949,1.4031,1.4031,0,0,0-.848-.23216,1.4673,1.4673,0,0,0-.96513.30326,2.35145,2.35145,0,0,0-.5983.76687,3.70214,3.70214,0,0,0-.29983.98089,5.55828,5.55828,0,0,0-.09949,1.01572H57.38233Z"/><path class="cls-1" d="M69.65371,12.925a3.28839,3.28839,0,0,0,.68155,2.42467,2.27254,2.27254,0,0,0,1.296.59867.48454.48454,0,0,1,.40071.48984v.75535a.50049.50049,0,0,1-.53006.50234q-3.99763-.32939-4.04382-4.73532a5.74923,5.74923,0,0,1,.99762-3.44111,3.52907,3.52907,0,0,1,2.97729-1.40895A3.473,3.473,0,0,1,74.677,9.66233a7.65509,7.65509,0,0,1,.82532,3.47634.50806.50806,0,0,1-.50537.51761H71.20142a.5.5,0,0,1-.5-.5v-.64039a.5.5,0,0,1,.5-.5h2.17813a2.80465,2.80465,0,0,0-.4494-1.5156,1.58128,1.58128,0,0,0-1.36377-.64207,1.80209,1.80209,0,0,0-1.41386.6058A4.169,4.169,0,0,0,69.65371,12.925Z"/><path class="cls-1" d="M78.2916,10.07224h.44295a.5.5,0,0,0,.5-.5V8.82448a.5.5,0,0,0-.5-.5H78.2916a.5.5,0,0,1-.5-.5V6.22133a.5.5,0,0,1,.5-.5h1.22873a.5.5,0,0,1,.5.5V7.82448a.5.5,0,0,0,.5.5H81.5a.5.5,0,0,1,.5.5v.74776a.5.5,0,0,1-.5.5h-.97967a.5.5,0,0,0-.5.5v6.59541a.5.5,0,0,1-.5.5H78.2916a.5.5,0,0,1-.5-.5V10.57224A.5.5,0,0,1,78.2916,10.07224Z"/><path class="cls-2" d="M43.48409,2.37734c-.9278-.21048-1.83667-.47248-2.75-.72245-.90936-.26062-1.80957-.5463-2.71027-.83068L38.591.43165c.08625,3.3656.04273,6.73012-.16,10.09329l-.24652-.3352c1.26715.46611,2.52606.95924,3.76929,1.50445-1.3368-.23617-2.65778-.52441-3.97065-.83966a.32032.32032,0,0,1-.24517-.29707l-.00153-.03839C37.5906,7.153,37.6039,3.78819,37.747.42451L37.74843.391a.40837.40837,0,0,1,.42536-.39064.41575.41575,0,0,1,.14062.03143c.871.36542,1.74243.72951,2.60468,1.11867C41.77742,1.55029,42.64022,1.938,43.48409,2.37734Z"/><polyline class="cls-2" points="42.805 3.077 39.683 2.222 39.594 9.634 44.144 11.692"/><path class="cls-3" d="M40.08754,11.85609a30.48062,30.48062,0,0,1-.79895,4.685l-.32806-.58333c.82806.21489,1.65363.43854,2.47022.69379l-.51655.17122a31.00353,31.00353,0,0,1,3.50239-3.77838,31.001,31.001,0,0,1-2.73389,4.36677.46565.46565,0,0,1-.49158.17794l-.02527-.00661c-.82861-.21286-1.64825-.45729-2.46539-.71051l-.02588-.008a.45911.45911,0,0,1-.30267-.57438l.00036-.00116A30.4896,30.4896,0,0,1,40.08754,11.85609Z"/><polyline class="cls-3" points="40.8 12.441 40.359 15.386 40.983 15.564 43.315 12.932"/><polyline class="cls-4" points="48.06 13.941 48.752 17.076 49.466 17.082 50.182 13.856"/><path class="cls-5" d="M49.23086,12.66239c.59466-.08384,1.18994-.14947,1.7854-.21008.59545-.05946,1.19036-.13562,1.78625-.18137l-.25214.19411c.38373-1.60527.8042-3.19951,1.24616-4.78729.44226-1.58769.89929-3.171,1.38989-4.74413l.50031.63118q-2.44657.14066-4.89814.20131l.2931-.16223c-.62165.81035-1.25892,1.60948-1.90064,2.4054-.6618.78158-1.29559,1.5832-1.982,2.34713.502-.89595,1.0567-1.75422,1.58337-2.63253.54669-.864,1.0979-1.72474,1.66473-2.5743A.36218.36218,0,0,1,50.71175,2.99l.02881-.00284q2.44043-.24043,4.88568-.40237a.48991.48991,0,0,1,.50317.6226l-.00268.00875c-.4577,1.583-.949,3.156-1.455,4.72456-.50634,1.56843-1.03418,3.13043-1.59869,4.68138l-.00952.02606a.25634.25634,0,0,1-.24292.16825c-.59766-.00618-1.19629-.04276-1.79444-.06266C50.42812,12.73274,49.82979,12.70666,49.23086,12.66239Z"/><polyline class="cls-5" points="48.183 11.74 51.874 11.143 53.699 4.446 51.599 4.575 47.679 9.397"/><path class="cls-6" d="M51.00972,13.696c.02649,1.58394-.06524,3.15018-.17645,4.71348a.47715.47715,0,0,1-.44873.44243l-.06726.00377c-.858.04866-1.71588.12044-2.57391.14469a.63649.63649,0,0,1-.6225-.43727l-.01459-.04531c-.4118-1.25845-.77875-2.52933-1.14422-3.80058-.34345-1.27739-.70288-2.55034-.99848-3.841a66.42916,66.42916,0,0,1-1.46222-7.83014,66.42492,66.42492,0,0,1,2.777,7.46573c.411,1.25867.75812,2.535,1.12122,3.807.341,1.27806.68066,2.5565.97546,3.84737l-.63684-.48239c.85822.01754,1.71661.08264,2.575.1246l-.51568.446C50.14913,16.72709,50.52034,15.20271,51.00972,13.696Z"/></g></g></svg>