<svg xmlns="http://www.w3.org/2000/svg" xmlns:xlink="http://www.w3.org/1999/xlink" viewBox="0 0 19.766 20.12426"><defs><style>.cls-1{fill:#fff;}.cls-2{fill:url(#linear-gradient);}</style><linearGradient id="linear-gradient" x1="4.61632" y1="11.1256" x2="15.09687" y2="12.62837" gradientUnits="userSpaceOnUse"><stop offset="0" stop-color="#fff"/><stop offset="1" stop-color="#fff"/></linearGradient></defs><title>Asset 3</title><g id="Layer_2" data-name="Layer 2"><g id="Layer_1-2" data-name="Layer 1"><path class="cls-1" d="M6.23336,2.52289c-.99109-.235-1.96317-.52167-2.93982-.796C2.32091,1.44184,1.35741,1.13178.39346.82306L.96072.43091c.08471,3.618.039,7.235-.16605,10.85059l-.246-.33481c1.3591.49551,2.71005,1.01776,4.04522,1.592-1.42892-.26575-2.842-.5835-4.247-.928A.32177.32177,0,0,1,.102,11.3115l-.00134-.03586C-.0435,7.65711-.0283,4.03992.11733.4238L.11858.39255A.409.409,0,0,1,.54372.00034a.41654.41654,0,0,1,.141.03119c.93414.3898,1.86874.77829,2.79415,1.19171C4.40035,1.64749,5.32638,2.05933,6.23336,2.52289Z"/><polyline class="cls-1" points="5.506 3.275 2.161 2.356 2.065 10.323 6.94 12.536"/><path class="cls-1" d="M2.59447,12.71271a35.08166,35.08166,0,0,1-.88836,5.02667l-.32788-.58307c.88669.2327,1.771.47388,2.64624.74668l-.51743.17175a35.66488,35.66488,0,0,1,3.72537-4.08456,35.66987,35.66987,0,0,1-2.95593,4.67169.467.467,0,0,1-.49411.17807l-.02362-.00626c-.88736-.23041-1.76569-.49246-2.64157-.763l-.024-.00738a.46044.46044,0,0,1-.304-.57578l.00006-.00015A35.08233,35.08233,0,0,1,2.59447,12.71271Z"/><polyline class="cls-1" points="3.357 13.342 2.885 16.507 3.554 16.698 6.052 13.87"/><polyline class="cls-1" points="11.136 14.954 11.877 18.324 12.642 18.331 13.409 14.863"/><path class="cls-1" d="M12.39025,13.57953c.63724-.0852,1.27509-.15234,1.91309-.21432.63809-.05936,1.27545-.14173,1.91415-.18225l-.24872.19165c.44348-1.71582.85651-3.44077,1.344-5.14341.4761-1.706.96685-3.40771,1.49142-5.09924l.50052.63065c-1.74756.09887-3.49619.181-5.24756.21856l.28928-.16046-2.0235,2.59561c-.70429.84394-1.38056,1.70786-2.10953,2.53418.54428-.9581,1.1413-1.87857,1.7103-2.81906L13.72,3.37375a.35.35,0,0,1,.25629-.15723l.0333-.00338c1.74264-.17871,3.488-.313,5.23443-.43042a.48942.48942,0,0,1,.50339.62188l-.00272.009c-.49139,1.70144-1.0166,3.39282-1.55645,5.07977-.52845,1.69037-1.13141,3.35846-1.70389,5.03564l-.00595.01743a.25821.25821,0,0,1-.243.17441c-.64.002-1.2814-.03778-1.922-.05463C13.67263,13.64676,13.03173,13.62219,12.39025,13.57953Z"/><polyline class="cls-1" points="11.267 12.588 15.222 11.946 17.177 4.747 14.927 4.886 10.728 10.069"/><path class="cls-2" d="M14.296,14.69071c-.08694,1.68527-.22809,3.36245-.39865,5.03524a.3305.3305,0,0,1-.3165.29673l-.02752.00094c-.91928.03382-1.8385.083-2.75785.10056a.43015.43015,0,0,1-.41919-.30319l-.0057-.01892c-.41748-1.3595-.80506-2.72727-1.19171-4.09531C8.807,14.33466,8.4244,12.96552,8.0844,11.5846q-.52817-2.06635-.99231-4.15039-.46833-2.08287-.84024-4.19239.76026,2.00226,1.4307,4.0293.67076,2.027,1.27859,4.07132c.417,1.35965.79135,2.73108,1.17639,4.09955.37031,1.37253.73969,2.74533,1.0792,4.12637l-.42465-.32193c.91946.01035,1.83905.05237,2.75854.079l-.34378.29749C13.53222,17.97321,13.887,16.32791,14.296,14.69071Z"/></g></g></svg>